<svg xmlns="http://www.w3.org/2000/svg" viewBox="0 0 360 420" role="img" aria-labelledby="title desc">
  <title id="title">HydroWise mark</title>
  <desc id="desc">Abstract H and flowing water mark for HydroWise.</desc>
  <defs>
    <linearGradient id="navy" x1="0" y1="0" x2="1" y2="1"><stop stop-color="#0d2148"/><stop offset="1" stop-color="#172e5d"/></linearGradient>
    <linearGradient id="blue" x1="0" y1="0" x2="1" y2="1"><stop stop-color="#0a75e8"/><stop offset="1" stop-color="#164de0"/></linearGradient>
    <linearGradient id="cyan" x1="0" y1="0" x2="1" y2="1"><stop stop-color="#21d2df"/><stop offset="1" stop-color="#168fc9"/></linearGradient>
  </defs>
  <path fill="url(#navy)" d="M54 77c0-19 10-35 25-45L163 5c20-12 45-7 58 11l7 10-102 67c-9 6-14 15-14 26v55h73v58h-73v91c0 10 5 19 14 25l76 48-12 9c-16 12-38 12-54 1l-57-39c-15-10-25-27-25-45V77Z"/>
  <path fill="url(#blue)" d="M160 86c0-12 6-23 16-30l95-66c17-12 41-8 54 8l9 12-112 79c-7 5-11 13-11 22v182c0 10 5 19 13 25l37 28-25 18-47-29c-18-11-29-31-29-52V86Z"/>
  <path fill="url(#cyan)" d="M234 151c0-13 6-25 17-33l51-36v155l28-34 26 35-43 53 43 35c15 12 24 30 24 49v15c0 19-10 36-26 46l-60 37c-15 9-33 9-48 0l-23-14 46-36c8-6 13-16 13-26V151Z"/>
  <path fill="#f8fbf5" d="m283 286 34-42 27 35-34 43 34 29-28 22-48-38 15-17Z"/>
</svg>
