<svg xmlns="http://www.w3.org/2000/svg" viewBox="0 0 520 300" role="img" aria-labelledby="title"><title id="title">HydroWise monochrome logo</title><defs><linearGradient id="navy" x1="0" y1="0" x2="1" y2="1"><stop stop-color="#032220"/><stop offset="1" stop-color="#302060"/></linearGradient><linearGradient id="blue" x1="0" y1="0" x2="1" y2="1"><stop stop-color="#302060"/><stop offset="1" stop-color="#0665d9"/></linearGradient><linearGradient id="cyan" x1="0" y1="0" x2="1" y2="1"><stop stop-color="#06a9c7"/><stop offset="1" stop-color="#6cde6e"/></linearGradient></defs><style>text{font-family:Arial,Helvetica,sans-serif}</style><g color="#303030"><g transform="translate(100 12) scale(.43)"><path fill="currentColor" d="M54 77c0-19 10-35 25-45L163 5c20-12 45-7 58 11l7 10-102 67c-9 6-14 15-14 26v55h73v58h-73v91c0 10 5 19 14 25l76 48-12 9c-16 12-38 12-54 1l-57-39c-15-10-25-27-25-45V77Z"/><path fill="currentColor" opacity=".82" d="M160 86c0-12 6-23 16-30l95-66c17-12 41-8 54 8l9 12-112 79c-7 5-11 13-11 22v182c0 10 5 19 13 25l37 28-25 18-47-29c-18-11-29-31-29-52V86Z"/><path fill="currentColor" opacity=".64" d="M234 151c0-13 6-25 17-33l51-36v155l28-34 26 35-43 53 43 35c15 12 24 30 24 49v15c0 19-10 36-26 46l-60 37c-15 9-33 9-48 0l-23-14 46-36c8-6 13-16 13-26V151Z"/></g><g transform="translate(96 220)"><text x="0" y="0" font-family="Arial, Helvetica, sans-serif" font-size="54" font-weight="700" letter-spacing="-2.6" fill="#303030">Hydro</text><text x="164" y="0" font-family="Arial, Helvetica, sans-serif" font-size="54" font-weight="700" letter-spacing="-2.6" fill="#303030">Wise</text><circle cx="342" cy="-42" r="8" fill="#303030"/><text x="2" y="29" font-family="Arial, Helvetica, sans-serif" font-size="8.5" font-weight="700" letter-spacing="4.2" fill="#303030">INTELLIGENT WATER SYSTEM</text></g></g></svg>
